<?xml version="1.0" encoding="iso-8859-1"?>
<!-- Generator: Adobe Illustrator 17.1.0, SVG Export Plug-In . SVG Version: 6.00 Build 0)  -->
<!DOCTYPE svg PUBLIC "-//W3C//DTD SVG 1.1//EN" "http://www.w3.org/Graphics/SVG/1.1/DTD/svg11.dtd">
<svg version="1.1" id="Capa_1" xmlns="http://www.w3.org/2000/svg" xmlns:xlink="http://www.w3.org/1999/xlink" x="0px" y="0px"
	 viewBox="0 0 267.297 267.297" style="enable-background:new 0 0 267.297 267.297;" xml:space="preserve">
<g>
	<path style="fill:#222220;" d="M259.797,0H7.5C3.357,0,0,3.358,0,7.5v252.297c0,4.142,3.357,7.5,7.5,7.5h252.297
		c4.143,0,7.5-3.358,7.5-7.5V7.5C267.297,3.358,263.939,0,259.797,0z M15,252.297V65.032h206.377c4.143,0,7.5-3.358,7.5-7.5
		s-3.357-7.5-7.5-7.5H15V15h237.297v187.265H51.201c-4.143,0-7.5,3.358-7.5,7.5s3.357,7.5,7.5,7.5h201.096v35.032H15z"/>
	<path style="fill:#222220;" d="M107.048,186.281c3.849,0,7.689-1.014,11.105-2.931l53.24-29.876
		c7.27-4.079,11.609-11.491,11.609-19.826s-4.34-15.747-11.609-19.826l-53.24-29.876c-3.416-1.917-7.257-2.931-11.105-2.931
		c-12.547,0-22.754,10.208-22.754,22.756v59.752C84.294,176.072,94.501,186.28,107.048,186.281z M99.294,103.772
		c0-4.791,4.024-7.756,7.754-7.756c1.302,0,2.569,0.34,3.766,1.012l53.24,29.876c3.564,2,3.949,5.383,3.949,6.745
		s-0.385,4.744-3.949,6.745l-53.24,29.876c-1.196,0.671-2.464,1.012-3.766,1.012c-3.729,0-7.754-2.966-7.754-7.756V103.772z"/>
</g>
<g>
</g>
<g>
</g>
<g>
</g>
<g>
</g>
<g>
</g>
<g>
</g>
<g>
</g>
<g>
</g>
<g>
</g>
<g>
</g>
<g>
</g>
<g>
</g>
<g>
</g>
<g>
</g>
<g>
</g>
</svg>
