<?xml version="1.0" encoding="utf-8"?>
<!-- Generator: Adobe Illustrator 17.0.0, SVG Export Plug-In . SVG Version: 6.00 Build 0)  -->
<!DOCTYPE svg PUBLIC "-//W3C//DTD SVG 1.1//EN" "http://www.w3.org/Graphics/SVG/1.1/DTD/svg11.dtd">
<svg version="1.1" id="Layer_1" xmlns="http://www.w3.org/2000/svg" xmlns:xlink="http://www.w3.org/1999/xlink" x="0px" y="0px"
	 width="175px" height="50px" viewBox="0 0 175 50" enable-background="new 0 0 175 50" xml:space="preserve">
<g>
	<g>
		<g>
			<path fill="#FFFFFF" d="M0.82,42.504h2.338c2.504,0,3.755,1.215,3.755,3.645c0,2.484-1.252,3.725-3.755,3.725H0.82V42.504z
				 M1.795,48.999h1.342c1.069,0,1.798-0.249,2.187-0.747c0.389-0.498,0.583-1.199,0.583-2.104c0-0.881-0.194-1.563-0.581-2.046
				c-0.387-0.482-1.117-0.724-2.189-0.724H1.795V48.999z"/>
			<path fill="#FFFFFF" d="M18.692,49.874h-5.495v-7.37h5.324v0.875h-4.349v2.252h4.067v0.875h-4.067v2.494h4.52V49.874z"/>
			<path fill="#FFFFFF" d="M27.786,50c-1.039,0-1.816-0.233-2.33-0.699c-0.514-0.466-0.785-1.064-0.812-1.795h0.94
				c0.05,0.549,0.279,0.956,0.686,1.219c0.407,0.263,0.899,0.395,1.476,0.395c0.546,0,0.986-0.112,1.32-0.337
				c0.334-0.225,0.5-0.53,0.5-0.915c0-0.406-0.173-0.7-0.518-0.885s-0.939-0.366-1.782-0.545c-0.843-0.179-1.448-0.428-1.815-0.747
				c-0.367-0.318-0.551-0.742-0.551-1.272c0-0.597,0.239-1.086,0.716-1.468c0.478-0.382,1.112-0.573,1.903-0.573
				c0.831,0,1.501,0.193,2.011,0.578c0.509,0.386,0.779,0.93,0.809,1.634h-0.95c-0.097-0.891-0.707-1.337-1.83-1.337
				c-0.543,0-0.963,0.102-1.262,0.307c-0.298,0.204-0.447,0.476-0.447,0.814c0,0.308,0.12,0.539,0.359,0.694
				c0.24,0.154,0.687,0.303,1.342,0.447s1.176,0.287,1.561,0.427c0.385,0.141,0.716,0.36,0.99,0.656
				c0.275,0.297,0.412,0.694,0.412,1.194c0,0.634-0.252,1.16-0.757,1.579C29.255,49.79,28.598,50,27.786,50z"/>
			<path fill="#FFFFFF" d="M37.917,49.874h-0.98v-7.37h0.98V49.874z"/>
			<path fill="#FFFFFF" d="M47.841,50c-1.059,0-1.918-0.347-2.576-1.041c-0.659-0.694-0.988-1.617-0.988-2.77
				c0-1.156,0.325-2.08,0.975-2.773c0.65-0.692,1.503-1.038,2.559-1.038c0.888,0,1.626,0.214,2.215,0.641
				c0.588,0.427,0.917,1,0.988,1.717h-1.011c-0.04-0.476-0.255-0.849-0.643-1.118c-0.389-0.27-0.902-0.405-1.538-0.405
				c-0.761,0-1.373,0.26-1.837,0.779c-0.464,0.519-0.696,1.252-0.696,2.197c0,0.942,0.234,1.673,0.704,2.194
				c0.469,0.521,1.082,0.782,1.84,0.782c1.062,0,1.852-0.35,2.368-1.051v-1.121h-1.945v-0.88h2.891v3.76h-0.689L50.199,49.1
				C49.699,49.7,48.913,50,47.841,50z"/>
			<path fill="#FFFFFF" d="M63.355,49.874h-1.001l-3.861-5.817v5.817h-0.925v-7.37h0.995l3.861,5.817v-5.817h0.93V49.874z"/>
			<path fill="#FFFFFF" d="M83.143,49.381L82.409,50l-0.638-0.804C81.188,49.732,80.457,50,79.579,50
				c-0.677,0-1.236-0.21-1.677-0.629c-0.441-0.419-0.661-0.927-0.661-1.523c0-0.456,0.141-0.855,0.422-1.197
				c0.282-0.342,0.71-0.675,1.287-1c-0.523-0.671-0.784-1.212-0.784-1.624c0-0.469,0.173-0.861,0.52-1.177
				c0.347-0.315,0.785-0.473,1.315-0.473c0.493,0,0.901,0.153,1.224,0.46c0.323,0.307,0.485,0.678,0.485,1.114
				c0,0.389-0.119,0.725-0.357,1.008c-0.238,0.283-0.6,0.566-1.086,0.847l1.483,1.845c0.144-0.369,0.226-0.784,0.247-1.247h0.98
				c-0.043,0.774-0.24,1.453-0.588,2.036L83.143,49.381z M81.238,48.517l-1.795-2.247c-0.426,0.251-0.736,0.488-0.93,0.711
				c-0.194,0.223-0.291,0.49-0.291,0.802c0,0.375,0.13,0.705,0.39,0.988c0.259,0.283,0.585,0.425,0.978,0.425
				C80.266,49.196,80.816,48.969,81.238,48.517z M79.785,45.209c0.345-0.188,0.598-0.375,0.759-0.561
				c0.161-0.186,0.241-0.411,0.241-0.676c0-0.255-0.083-0.46-0.249-0.616c-0.166-0.156-0.361-0.234-0.586-0.234
				c-0.241,0-0.444,0.075-0.608,0.224c-0.164,0.149-0.246,0.344-0.246,0.586c0,0.271,0.151,0.598,0.453,0.98L79.785,45.209z"/>
			<path fill="#FFFFFF" d="M97.109,42.504h2.338c2.504,0,3.755,1.215,3.755,3.645c0,2.484-1.252,3.725-3.755,3.725h-2.338V42.504z
				 M98.085,48.999h1.342c1.069,0,1.798-0.249,2.187-0.747c0.389-0.498,0.583-1.199,0.583-2.104c0-0.881-0.194-1.563-0.58-2.046
				c-0.387-0.482-1.117-0.724-2.19-0.724h-1.342V48.999z"/>
			<path fill="#FFFFFF" d="M114.982,49.874h-5.495v-7.37h5.324v0.875h-4.348v2.252h4.067v0.875h-4.067v2.494h4.519V49.874z"/>
			<path fill="#FFFFFF" d="M127.269,42.504l-2.866,7.37h-1.005l-2.866-7.37h1.041l2.328,6.319l2.328-6.319H127.269z"/>
			<path fill="#FFFFFF" d="M138.601,49.874h-5.495v-7.37h5.324v0.875h-4.348v2.252h4.067v0.875h-4.067v2.494h4.519V49.874z"/>
			<path fill="#FFFFFF" d="M149.475,49.874h-4.56v-7.37h0.976v6.495h3.584V49.874z"/>
			<path fill="#FFFFFF" d="M158.776,42.378c1.032,0,1.877,0.349,2.534,1.046c0.657,0.697,0.986,1.619,0.986,2.765
				c0,1.146-0.329,2.068-0.986,2.765c-0.657,0.697-1.501,1.046-2.534,1.046c-1.036,0-1.883-0.35-2.544-1.048
				c-0.661-0.699-0.991-1.62-0.991-2.763c0-1.146,0.33-2.068,0.991-2.765C156.892,42.727,157.74,42.378,158.776,42.378z
				 M158.766,49.165c0.737,0,1.341-0.262,1.812-0.784c0.471-0.523,0.706-1.253,0.706-2.192c0-0.938-0.235-1.669-0.704-2.192
				c-0.47-0.523-1.068-0.784-1.795-0.784c-0.741,0-1.348,0.261-1.823,0.784c-0.474,0.523-0.711,1.254-0.711,2.192
				c0,0.935,0.236,1.665,0.709,2.19C157.433,48.903,158.035,49.165,158.766,49.165z"/>
			<path fill="#FFFFFF" d="M168.534,42.504h2.75c0.603,0,1.108,0.056,1.516,0.169c0.407,0.112,0.73,0.355,0.968,0.729
				c0.238,0.374,0.357,0.792,0.357,1.255c0,0.744-0.237,1.309-0.709,1.694c-0.473,0.385-1.156,0.578-2.051,0.578h-1.855v2.946
				h-0.976V42.504z M169.509,46.054h1.865c0.627,0,1.073-0.117,1.34-0.352c0.266-0.234,0.4-0.573,0.4-1.015
				c0-0.295-0.074-0.556-0.221-0.784c-0.148-0.228-0.335-0.372-0.561-0.432c-0.226-0.06-0.552-0.091-0.978-0.091h-1.845V46.054z"/>
		</g>
		<g>
			<path fill="#FFFFFF" d="M59.497,25.73c0,7.978-4.726,11.968-14.177,11.968H1.247V0H45.32c9.451,0,14.177,4.004,14.177,12.013
				V25.73z M10.43,8.768V28.93H45.32c3.299,0,4.948-1.068,4.948-3.2V12.013c0-2.164-1.649-3.245-4.948-3.245H10.43z"/>
			<path fill="#FFFFFF" d="M116.482,15.12c0,5.372-3.783,8.056-11.347,8.056H75.538c-1.426,0-2.14,0.46-2.14,1.38v4.374h65.311
				v8.768H64.215V23.405c0-5.998,3.774-8.999,11.323-8.999h29.597c1.443,0,2.164-0.452,2.164-1.357v-2.923
				c0-0.905-0.721-1.357-2.164-1.357h-67.44V0h67.44c7.564,0,11.347,3.059,11.347,9.182V15.12z"/>
			<path fill="#FFFFFF" d="M174.042,8.768h-41.473c-1.426,0-2.14,0.606-2.14,1.817v3.821h43.337v8.77h-43.337v3.866
				c0,1.257,0.714,1.888,2.14,1.888h41.611v8.768h-41.611c-7.58,0-11.369-3.077-11.369-9.23V9.182C121.2,3.059,124.989,0,132.569,0
				h41.473V8.768z"/>
		</g>
	</g>
	<path fill="#FFFFFF" d="M43.138,20.232v2.844c0,1.029-0.667,1.862-1.491,1.862H18.863c-0.823,0-1.491-0.834-1.491-1.862v-2.844
		h-1.516v4.694c0,0.92,0.746,1.666,1.666,1.666h25.465c0.92,0,1.666-0.746,1.666-1.666v-4.694H43.138z"/>
	<path fill="#FFFFFF" d="M19.849,16.534c0,0.045-0.036,0.082-0.082,0.082h-3.913c-0.045,0-0.082-0.036-0.082-0.082v-3.913
		c0-0.045,0.036-0.082,0.082-0.082h3.913c0.045,0,0.082,0.036,0.082,0.082V16.534z"/>
	<path fill="#FFFFFF" d="M44.664,16.534c0,0.045-0.036,0.082-0.082,0.082H40.67c-0.045,0-0.082-0.036-0.082-0.082v-3.913
		c0-0.045,0.036-0.082,0.082-0.082h3.913c0.045,0,0.082,0.036,0.082,0.082V16.534z"/>
</g>
</svg>
